<svg xmlns="http://www.w3.org/2000/svg" fill="#1434CB" viewBox="221.52 290.17 580.95 187.65">
  <path d="m442.107 293.511-76.052 181.453h-49.619l-37.425-144.808c-2.273-8.919-4.248-12.186-11.159-15.944-11.282-6.12-29.913-11.863-46.305-15.427l1.113-5.274h79.871c10.18 0 19.333 6.777 21.645 18.501L343.94 417.01l48.85-123.502h49.316v.003zm194.414 122.21c.2-47.89-66.222-50.53-65.765-71.923.142-6.51 6.341-13.433 19.91-15.2 6.726-.88 25.258-1.552 46.276 8.12l8.245-38.478c-11.295-4.1-25.826-8.045-43.907-8.045-46.396 0-79.048 24.664-79.323 59.981-.3 26.123 23.306 40.7 41.09 49.38 18.295 8.889 24.434 14.6 24.364 22.552-.13 12.172-14.592 17.545-28.107 17.757-23.593.363-37.283-6.384-48.197-11.458L502.6 468.16c10.967 5.032 31.211 9.422 52.199 9.643 49.313 0 81.571-24.359 81.722-62.08zm122.516 59.243h43.413L764.555 293.51h-40.07c-9.01 0-16.61 5.246-19.974 13.312l-70.437 168.14h49.289l9.784-27.102h60.223l5.667 27.103zm-52.375-64.293 24.706-68.128 14.22 68.128h-38.926zm-197.488-117.16L470.36 474.964h-46.938l38.83-181.453h46.922z" />
</svg>
