<svg xmlns="http://www.w3.org/2000/svg" fill="none" viewBox="0 0 295 187">
  <defs>
    <radialGradient id="b" cx="0" cy="0" r="1" gradientTransform="matrix(-66.74694 3.66162 -7.54856 -137.6011 107.49 106.877)" gradientUnits="userSpaceOnUse">
      <stop stop-color="#fff"/>
      <stop offset=".271" stop-color="#fff" stop-opacity=".729"/>
      <stop offset=".484" stop-color="#fff" stop-opacity=".516"/>
      <stop offset=".74" stop-color="#EEE" stop-opacity="0"/>
      <stop offset="1" stop-color="#fff"/>
    </radialGradient>
    <clipPath id="a">
      <rect width="186.68" height="295" y="186.68" fill="#fff" rx="12.292" transform="rotate(-90 0 186.68)"/>
    </clipPath>
  </defs>
  <g clip-path="url(#a)">
    <rect width="186.68" height="295" y="186.68" fill="#1A1A1C" rx="12.292" transform="rotate(-90 0 186.68)"/>
    <path fill="#000" d="M0 23.047h295v39.948H0z"/>
    <path fill="#38383A" d="M0 62.994h295v-.768H0z"/>
  </g>
  <rect width="246" height="33" x="22.5" y="93.5" fill="#424244" stroke="#606062" rx="2.5"/>
  <path fill="url(#b)" d="M49.022 115.422c-.79-.33-1.581-1.615-1.581-3.032 0-1.747.626-5.669 3.822-10.315 3-4.383 6.591-7.712 10.348-7.712 4.977 0 1.945 10.249-1.285 18.422.89-.132 1.549-.296 1.977-.56.56-.33.66.066.264.362-.527.396-1.318.693-2.538.923l-.23.593c-3.197 7.844-9.26 20.169-15.49 20.169-4.942 0-8.205-6.525-.889-13.611 4.877-4.712 12.655-7.118 15.983-7.711 5.24-12.259 4.878-17.796 2.11-17.796-2.67 0-7.02 3.856-9.36 7.316-2.67 3.955-4.12 8.074-4.12 10.019 0 1.516.825 2.208 1.352 2.504.527.363.132.659-.363.429Zm-4.811 18.257c4.35 0 9.293-7.283 14.863-20.004-4.153.791-10.546 3.098-15.094 7.481-6.063 5.899-3.592 12.523.23 12.523Zm33.361-37.932c1.088 0 1.285 2.802.66 4.779-1.055 3.164-2.505 5.339-4.087 6.855-.824 3.658-1.78 7.876-2.01 9.524-.066.263-.033.329.164.065 1.78-2.306 3.592-4.514 4.284-4.547.627 0 .693.527.693 1.219 0 .857.197 1.318.593 1.318.461 0 1.021-.263 1.713-.725 1.22-.758.758.033.1.462-.56.395-1.385.955-1.978.955-.956 0-1.186-.758-1.186-1.582 0-.461.099-.823-.1-.823-.329 0-2.141 2.01-4.119 4.449-.197.23-.494.395-.725.395-.165 0-.33-.428-.263-1.121.197-1.548 1.021-5.141 1.78-8.7-1.352 1.022-2.736 1.582-4.087 1.846.132.527.197 1.12.197 1.779 0 3.691-2.174 5.603-3.624 5.273-.725-.165-1.319-.824-1.319-1.977.033-1.252.824-2.702 1.714-3.658.33-.33.824-.593 1.186-.494.528.131.066.329-.395.692-.89.791-1.813 2.372-1.813 3.427 0 .857.231 1.351.791 1.483 1.12.264 2.834-2.109 2.834-4.844 0-.594-.066-1.154-.197-1.582a9.656 9.656 0 0 1-1.352.099c-.89 0-1.614-.429-1.483-1.187.1-.494.66-.923 1.418-.923.856 0 1.516.495 1.878 1.385 1.582-.297 3.098-1.022 4.449-2.208l.461-2.11c1.483-6.92 2.9-9.524 3.823-9.524Zm-3.065 9.986-.099.494c1.22-1.483 2.307-3.394 3.098-5.866.495-1.582.758-3.823 0-3.823-.461 0-.89.956-1.45 2.834-.033.165-.922 3.395-1.549 6.361Zm-7.415 4.02c.363 0 .725 0 1.12-.066-.296-.659-.79-.988-1.284-.988-.363 0-.758.132-.791.494-.066.33.296.56.955.56Zm21.074 4.647c.461-.198.626.132.099.362-.758.363-1.615.561-2.044.462-.692-.132-.856-.989-.79-1.912.032-.494 0-.692-.1-.758-.164-.098-.527.033-1.153.363-.527.264-2.34 1.186-2.636 1.186-.198 0-.791-.23-.791-.494 0-.165.428-1.285.593-2.34.066-.263.297-.263.461-.296.198 0 .297.066.264.362-.066.626-.494 1.78-.56 2.043-.033.066 0 .132.099.132s1.054-.461 1.713-.791c.956-.494 1.615-.857 2.11-.857.494 0 .89.396.89 1.055-.067.923 0 1.549.263 1.681.296.132.79.066 1.582-.198Zm10.975-7.283c0 .989.462 2.076 1.846 3.032.231.165-.429.296-.791.033-.725-.528-1.615-1.846-1.615-3.263 0-2.109 1.483-4.35 3.988-6.097 3.46-2.438 7.217-3.46 9.985-3.46 3.724 0 7.778 2.11 7.778 8.305 0 4.844-2.505 11.303-6.921 15.851-3.724 3.889-9.03 6.427-12.523 6.427-3.493 0-5.042-1.78-5.042-4.285 0-3.229 1.977-7.612 7.25-11.303.461-.297.89-.593 1.351-.857 1.154-4.482 2.34-8.601 2.571-9.195.362-1.054.659-.197.428.66a242.936 242.936 0 0 0-2.241 8.107c3.79-2.011 6.822-2.011 7.151-1.978.396.033.231.363-.725.429-.856.066-3.46.56-6.755 2.702-.89 3.46-1.714 6.723-2.175 8.931-.231 1.087-.495.23-.429-.165.33-2.076 1.055-5.174 1.846-8.239l-.659.495c-4.812 3.691-7.119 8.008-7.119 10.413 0 1.714 1.417 3.197 4.614 3.197 3.559 0 9.491-3.032 11.897-5.866 4.152-4.746 6.624-10.183 6.624-15.851 0-4.12-2.439-6.954-7.053-6.954-2.834 0-6.525 1.384-9.227 3.197-2.735 1.812-4.054 4.086-4.054 5.734Zm22.285 6.624c.198-.429.395-.824.659-1.187a1.016 1.016 0 0 1-.461-.527c-.594-1.252.757-2.999 2.603-2.999 1.417 0 2.373 1.78 2.109 3.658l.659-.066c1.45-.131 4.317-.725 5.965-1.516.198-.131.56.099.396.165-1.582.857-4.021 1.615-6.394 1.846l-.758.066c-.494 1.911-2.142 3.097-3.295 3.097-1.714 0-1.912-1.516-1.483-2.537Zm2.735-2.472c0 .099-.593.429-1.153 1.121.692.23 1.614.296 2.504.296 0-.066 0-.099.033-.164.297-1.582-.296-2.933-1.417-2.933-1.087 0-2.472 1.219-2.01 2.208.066.131.165.23.296.329.627-.659 1.286-1.054 1.483-1.054.198 0 .264.065.264.197Zm-1.351 4.449c.89.132 2.043-.89 2.57-2.537-.955 0-1.977-.066-2.702-.33a2.975 2.975 0 0 0-.428.857c-.264.659-.264 1.878.56 2.01Zm10.325-.198c-1.714.132-2.472-1.318-1.78-2.834.659-1.516 1.977-2.109 2.669-1.977.627.099.824.626.561 1.384-.396 1.022-1.615 1.747-2.801 2.142.131.462.56.692 1.153.659 1.516-.132 3.625-1.186 9.59-3.79.428-.197.527.231.264.33-5.01 2.208-7.844 3.955-9.656 4.086Zm-1.187-2.603c-.164.363-.23.659-.23.923.955-.33 2.109-1.253 2.372-1.978.099-.296.066-.593-.164-.659-.363-.099-1.417.33-1.978 1.714Z" opacity=".35"/>
  <path fill="#fff" d="M236.242 116h-7.168v-2.128h2.528v-5.696h-1.808v-1.712c1.456-.096 2.016-.656 2.208-1.872h1.824v9.28h2.416V116Zm10.998 0h-9.664v-1.6c0-2.416 2.112-3.296 4.24-4.064 1.76-.64 3.184-1.168 3.184-2.336 0-1.136-.784-1.712-2.336-1.712-1.776 0-2.688.816-2.688 2.288v.288h-2.256v-.368c0-2.656 1.728-4.112 4.976-4.112 3.088 0 4.592 1.488 4.592 3.52 0 2.256-1.92 3.184-4.08 3.968-1.712.624-2.976 1.104-3.072 2.096h7.104V116Zm6.09.24c-3.52 0-4.928-1.28-4.928-3.984V112h2.272v.176c0 1.456.816 2.096 2.656 2.096 1.712 0 2.656-.672 2.656-1.728 0-1.12-.736-1.424-2.304-1.424h-1.472v-1.728h1.456c1.504 0 2.16-.464 2.16-1.456 0-.976-.784-1.6-2.416-1.6-1.712 0-2.624.784-2.624 2.016v.144h-2.224v-.208c0-2.432 1.776-3.904 4.896-3.904 2.944 0 4.688 1.312 4.688 3.296 0 1.28-.592 2.08-1.696 2.448 1.2.368 1.904 1.184 1.904 2.64 0 2.112-1.84 3.472-5.024 3.472Z"/>
  <circle cx="245" cy="111" r="31" stroke="#fff" stroke-width="2"/>
</svg>
