<svg xmlns="http://www.w3.org/2000/svg" fill="#5A78FF" viewBox="0 0 19 21">
  <defs>
    <linearGradient id="a" x1="165.821" x2="627.534" y1="654.964" y2="340.217" gradientUnits="userSpaceOnUse">
      <stop stop-color="#504678"/>
      <stop offset=".179" stop-color="#504678" stop-opacity=".872"/>
      <stop offset=".526" stop-color="#504678" stop-opacity=".536"/>
      <stop offset="1" stop-color="#504678" stop-opacity="0"/>
    </linearGradient>
    <linearGradient id="b" x1="561.919" x2="541.438" y1="347.272" y2="183.466" gradientUnits="userSpaceOnUse">
      <stop stop-color="#504678"/>
      <stop offset=".643" stop-color="#504678" stop-opacity=".332"/>
      <stop offset="1" stop-color="#504678" stop-opacity="0"/>
    </linearGradient>
  </defs>
  <path d="M7.545 20.782a1.692 1.692 0 0 1-1.563-1.043L.146 5.65a1.69 1.69 0 0 1 .914-2.207L7.173.911a1.689 1.689 0 0 1 2.207.915l5.835 14.089a1.69 1.69 0 0 1-.914 2.206L8.19 20.654a1.68 1.68 0 0 1-.644.128Zm.274-19.09a.778.778 0 0 0-.298.06L1.408 4.283a.78.78 0 0 0-.422 1.02L6.822 19.39a.78.78 0 0 0 1.019.423l6.112-2.534a.78.78 0 0 0 .422-1.019L8.54 2.174a.781.781 0 0 0-.72-.482Z"/>
  <path d="M12.925 11.142c-1.748.725-3.208 1.724-4.163 2.929L6.298 8.12A10.404 10.404 0 0 1 10.46 5.19c1.748-.725 3.514-1.075 5.015-.871l2.464 5.95a10.4 10.4 0 0 0-5.015.872Z"/>
  <path fill="url(#a)" d="M12.924 11.14c-1.748.725-3.208 1.724-4.163 2.929L6.297 8.118a10.405 10.405 0 0 1 4.163-2.929c1.748-.725 3.514-1.076 5.015-.871l2.464 5.95a10.4 10.4 0 0 0-5.015.872Z" opacity=".6"/>
  <path d="M13.729 12.953c-1.892 0-3.624.366-4.967 1.112V8.048a10.404 10.404 0 0 1 4.967-1.112c1.892 0 3.658.35 4.966 1.113v6.017a10.4 10.4 0 0 0-4.966-1.113Z"/>
</svg>
